<?xml version="1.0" standalone="no"?>
<!DOCTYPE svg PUBLIC "-//W3C//DTD SVG 20010904//EN"
 "http://www.w3.org/TR/2001/REC-SVG-20010904/DTD/svg10.dtd">
<svg version="1.0" xmlns="http://www.w3.org/2000/svg"
 width="375.000000pt" height="375.000000pt" viewBox="0 0 375.000000 375.000000"
 preserveAspectRatio="xMidYMid meet">
<metadata>
Created by potrace 1.14, written by Peter Selinger 2001-2017
</metadata>
<g transform="translate(0.000000,375.000000) scale(0.100000,-0.100000)"
fill="#000000" stroke="none">
<path d="M2964 2468 l-222 -223 -22 -92 c-12 -50 -19 -97 -15 -102 10 -17 52
-13 144 14 l84 24 209 208 c134 134 208 215 208 228 0 21 -136 165 -155 165
-6 0 -110 -100 -231 -222z m269 94 l37 -38 -193 -190 c-157 -156 -200 -193
-233 -202 -63 -18 -64 -18 -48 40 12 48 28 66 201 240 103 103 190 188 193
188 3 0 23 -17 43 -38z"/>
<path d="M2689 1954 c-9 -11 -10 -20 -2 -32 9 -15 45 -17 369 -17 l359 0 3 24
c2 13 -2 28 -10 32 -7 5 -169 9 -359 9 -304 0 -348 -2 -360 -16z"/>
<path d="M221 1783 c0 -16 37 -390 82 -833 l83 -805 177 -3 c97 -1 177 1 177
5 -2 34 116 1101 120 1095 4 -4 30 -234 59 -512 29 -278 55 -524 58 -548 l6
-42 163 0 163 0 6 43 c3 23 39 377 80 787 41 410 77 766 81 793 l6 47 -116 0
c-64 0 -116 -3 -116 -7 1 -5 -25 -293 -57 -642 -35 -391 -60 -621 -64 -600 -4
19 -33 307 -65 642 l-58 607 -143 0 c-79 0 -143 -1 -144 -2 0 -2 -29 -289 -63
-638 -35 -349 -66 -628 -69 -620 -3 8 -28 276 -56 595 -29 319 -54 599 -57
623 l-6 42 -124 0 -124 0 1 -27z"/>
<path d="M1660 975 l0 -835 258 0 c288 0 332 7 414 62 101 68 138 158 145 358
6 157 -7 261 -41 329 -26 50 -90 114 -125 126 -29 9 -26 16 19 47 92 64 124
164 118 367 -4 124 -7 142 -33 199 -37 83 -97 136 -183 162 -57 18 -93 20
-318 20 l-254 0 0 -835z m464 582 c53 -35 61 -60 61 -197 0 -137 -9 -167 -58
-204 -22 -16 -47 -22 -113 -25 l-84 -3 0 227 0 228 84 -5 c56 -3 93 -10 110
-21z m23 -693 c54 -40 63 -73 63 -242 0 -226 -11 -241 -182 -250 l-98 -5 0
263 0 262 94 -4 c76 -2 100 -7 123 -24z"/>
<path d="M2680 975 l0 -836 273 3 272 3 57 28 c79 39 142 111 170 195 22 65
22 82 26 561 2 327 -1 517 -8 564 -22 141 -90 240 -198 290 -44 21 -65 22
-319 25 l-273 3 0 -836z m469 586 c12 -7 31 -27 41 -44 19 -31 20 -55 20 -535
0 -546 -1 -552 -55 -588 -20 -13 -49 -18 -118 -18 l-92 -1 -3 590 c-1 325 0
596 3 604 4 11 24 13 93 9 49 -3 98 -11 111 -17z"/>
</g>
</svg>
