<?xml version="1.0" encoding="UTF-8"?>
<svg version="1.1" xmlns="http://www.w3.org/2000/svg" width="512" height="512">
<path d="M0 0 C1.25150219 -0.00311998 2.50300438 -0.00623996 3.79243088 -0.00945449 C7.2268804 -0.01772027 10.66121723 -0.01371515 14.09566689 -0.00748205 C17.8148839 -0.0029245 21.53408262 -0.00995757 25.2532959 -0.01544189 C32.52372545 -0.02430254 39.79411355 -0.02242879 47.06454468 -0.01661661 C52.97707457 -0.01208697 58.88959289 -0.01149284 64.80212402 -0.01366425 C65.6458698 -0.01397071 66.48961557 -0.01427718 67.3589294 -0.01459293 C69.07335695 -0.01523243 70.7877845 -0.01588085 72.50221205 -0.01653811 C88.55202944 -0.02223166 104.60182392 -0.01569886 120.65163755 -0.00493738 C134.40220994 0.00399724 148.15274854 0.00244492 161.90332031 -0.0067749 C177.89845459 -0.0174948 193.89356884 -0.02168242 209.88870621 -0.01555037 C211.5965805 -0.01491332 213.3044548 -0.01428458 215.0123291 -0.01366425 C216.27255957 -0.01320142 216.27255957 -0.01320142 217.55824924 -0.01272924 C223.45888169 -0.01100746 229.35950136 -0.01390623 235.26013184 -0.01862335 C242.45788285 -0.02425133 249.65559027 -0.02267561 256.85333633 -0.01206186 C260.52079413 -0.00683085 264.18817945 -0.00470419 267.8556366 -0.01136017 C271.84197099 -0.01848508 275.82812474 -0.00993787 279.81445312 0 C280.95834881 -0.00446144 282.10224449 -0.00892289 283.28080368 -0.01351953 C301.59712841 0.07462401 317.51802863 4.24854409 331.09472656 17.00396729 C344.50780174 31.03036399 347.23411932 48.64895167 347.16119385 67.34674072 C347.16431383 68.59824291 347.16743381 69.8497451 347.17064834 71.1391716 C347.17891411 74.57362112 347.174909 78.00795795 347.1686759 81.44240761 C347.16411835 85.16162462 347.17115142 88.88082334 347.17663574 92.60003662 C347.18549639 99.87046617 347.18362264 107.14085427 347.17781046 114.4112854 C347.17328082 120.32381529 347.17268668 126.23633362 347.17485809 132.14886475 C347.17516456 132.99261052 347.17547103 133.83635629 347.17578678 134.70567012 C347.17642627 136.42009767 347.1770747 138.13452522 347.17773196 139.84895277 C347.1834255 155.89877016 347.17689271 171.94856465 347.16613123 187.99837828 C347.15719661 201.74895066 347.15874892 215.49948926 347.16796875 229.25006104 C347.17868865 245.24519532 347.18287627 261.24030956 347.17674422 277.23544693 C347.17610717 278.94332122 347.17547843 280.65119552 347.17485809 282.35906982 C347.17454954 283.19922347 347.17424099 284.03937711 347.17392309 284.90498996 C347.17220131 290.80562241 347.17510008 296.70624208 347.1798172 302.60687256 C347.18544518 309.80462357 347.18386946 317.00233099 347.17325571 324.20007706 C347.1680247 327.86753486 347.16589804 331.53492017 347.17255402 335.20237732 C347.17967892 339.18871171 347.17113172 343.17486546 347.16119385 347.16119385 C347.16565529 348.30508953 347.17011673 349.44898521 347.17471337 350.6275444 C347.08656984 368.94386913 342.91264976 384.86476936 330.15722656 398.44146729 C316.13082986 411.85454246 298.51224217 414.58086004 279.81445312 414.50793457 C278.56295094 414.51105455 277.31144875 414.51417453 276.02202225 414.51738906 C272.58757273 414.52565484 269.1532359 414.52164972 265.71878624 414.51541662 C261.99956922 414.51085907 258.28037051 414.51789214 254.56115723 414.52337646 C247.29072767 414.53223711 240.02033958 414.53036336 232.74990845 414.52455118 C226.83737856 414.52002154 220.92486023 414.51942741 215.0123291 414.52159882 C214.16858333 414.52190528 213.32483756 414.52221175 212.45552373 414.5225275 C210.74109618 414.523167 209.02666862 414.52381542 207.31224108 414.52447268 C191.26242369 414.53016623 175.2126292 414.52363343 159.16281557 414.51287195 C145.41224319 414.50393733 131.66170458 414.50548965 117.91113281 414.51470947 C101.91599853 414.52542937 85.92088429 414.52961699 69.92574692 414.52348495 C68.21787262 414.52284789 66.50999832 414.52221915 64.80212402 414.52159882 C63.54189356 414.52113599 63.54189356 414.52113599 62.25620389 414.52066381 C56.35557143 414.51894203 50.45495176 414.5218408 44.55432129 414.52655792 C37.35657028 414.5321859 30.15886285 414.53061018 22.96111679 414.51999643 C19.29365899 414.51476542 15.62627368 414.51263876 11.95881653 414.51929474 C7.97248214 414.52641965 3.98632838 414.51787244 0 414.50793457 C-1.14389568 414.51239601 -2.28779137 414.51685746 -3.46635056 414.5214541 C-21.78267528 414.43331056 -37.70357551 410.25939048 -51.28027344 397.50396729 C-64.69334861 383.47757058 -67.41966619 365.8589829 -67.34674072 347.16119385 C-67.3498607 345.90969166 -67.35298069 344.65818947 -67.35619521 343.36876297 C-67.36446099 339.93431345 -67.36045587 336.49997662 -67.35422277 333.06552696 C-67.34966523 329.34630995 -67.35669829 325.62711123 -67.36218262 321.90789795 C-67.37104326 314.6374684 -67.36916951 307.3670803 -67.36335734 300.09664917 C-67.35882769 294.18411928 -67.35823356 288.27160095 -67.36040497 282.35906982 C-67.36071143 281.51532405 -67.3610179 280.67157828 -67.36133365 279.80226445 C-67.36197315 278.0878369 -67.36262158 276.37340935 -67.36327884 274.6589818 C-67.36897238 258.60916441 -67.36243958 242.55936993 -67.3516781 226.50955629 C-67.34274348 212.75898391 -67.3442958 199.00844531 -67.35351562 185.25787354 C-67.36423553 169.26273925 -67.36842315 153.26762501 -67.3622911 137.27248764 C-67.36165405 135.56461335 -67.3610253 133.85673905 -67.36040497 132.14886475 C-67.36009642 131.3087111 -67.35978787 130.46855746 -67.35946997 129.60294461 C-67.35774818 123.70231216 -67.36064695 117.80169249 -67.36536407 111.90106201 C-67.37099205 104.703311 -67.36941633 97.50560358 -67.35880259 90.30785751 C-67.35357157 86.64039971 -67.35144491 82.9730144 -67.35810089 79.30555725 C-67.3652258 75.31922286 -67.3566786 71.33306911 -67.34674072 67.34674072 C-67.35120217 66.20284504 -67.35566361 65.05894936 -67.36026025 63.88039017 C-67.27211671 45.56406544 -63.09819663 29.64316521 -50.34277344 16.06646729 C-36.31637674 2.65339211 -18.69778905 -0.07292547 0 0 Z " fill="#000000" transform="translate(116.0927734375,48.74603271484375)"/>
<path d="M0 0 C2.15588143 1.65782301 4.23587678 3.36835962 6.3046875 5.1328125 C7.10003906 5.7309375 7.89539063 6.3290625 8.71484375 6.9453125 C21.83505706 18.02724229 31.07516992 36.20705823 33.3046875 53.1328125 C34.18166911 64.25848246 34.41252745 75.61674224 30.3046875 86.1328125 C29.94117188 87.1846875 29.57765625 88.2365625 29.203125 89.3203125 C21.86637131 109.76855504 8.01845325 125.72240864 -11.6953125 135.1328125 C-31.62803569 142.76281733 -54.7645299 144.93113253 -74.6953125 136.1328125 C-94.102439 127.13792239 -109.18961018 112.27714906 -116.6953125 92.1328125 C-118.15741915 87.83138908 -119.49373177 83.51396069 -120.6953125 79.1328125 C-120.8711084 78.51196777 -121.0469043 77.89112305 -121.22802734 77.25146484 C-125.4587989 58.06931461 -119.44142539 38.52568199 -109.6953125 22.1328125 C-106.22070338 16.94949642 -102.26927761 12.38006582 -97.6953125 8.1328125 C-97.09589844 7.53984375 -96.49648437 6.946875 -95.87890625 6.3359375 C-70.10250228 -18.15876683 -29.03829813 -20.11638624 0 0 Z " fill="#FEFEFE" transform="translate(241.6953125,191.8671875)"/>
<path d="M0 0 C12.34208299 7.31475794 18.58034669 22.14327693 22.09692383 35.43041992 C25.78549857 50.29641033 26.01873946 64.30349349 25.8125 79.5625 C25.80734375 80.77808594 25.8021875 81.99367188 25.796875 83.24609375 C25.09183202 102.20671402 17.93905214 122.58030087 5.12109375 136.57421875 C-0.34894971 141.28530525 -5.19915476 142.17711098 -12.22265625 141.96875 C-19.26132051 141.00429535 -24.067453 136.3771289 -28.4609375 131.05078125 C-45.14667858 107.00368382 -47.85750294 73.23200982 -43.00488281 45.07226562 C-39.62445861 28.26822269 -33.57373482 10.9333532 -19.1875 0.5625 C-13.55000969 -2.88578381 -5.97658494 -2.59182594 0 0 Z " fill="#FDFDFD" transform="translate(328.1875,185.4375)"/>
<path d="M0 0 C1.2065625 0.0309375 1.2065625 0.0309375 2.4375 0.0625 C19.57001038 26.37314094 15.52957612 69.32301875 11.6875 99.1875 C11.53079834 100.41799072 11.37409668 101.64848145 11.21264648 102.91625977 C8.39639533 122.42220633 8.39639533 122.42220633 2.4375 129.0625 C0 129.625 0 129.625 -2.5625 129.0625 C-15.85308127 114.77512513 -14.02601933 86.37160184 -13.89868164 68.43676758 C-13.87496493 64.86972564 -13.87816215 61.3034298 -13.88476562 57.73632812 C-13.86700521 42.92053965 -13.58378824 28.331226 -9.6875 13.9375 C-9.38070313 12.75929687 -9.07390625 11.58109375 -8.7578125 10.3671875 C-5.05255236 0.12323298 -5.05255236 0.12323298 0 0 Z " fill="#FBFBFB" transform="translate(378.5625,190.9375)"/>
</svg>
